<svg version="1.0" xmlns="http://www.w3.org/2000/svg" width="3200" height="3200" viewBox="0 0 2400 2400"><path d="M84.5 738.1c-3.3 1.1-6.5 2.1-7.2 2.3-.7.1-1.6.5-1.9.9-.4.4-1.6.7-2.6.7s-1.8.4-1.8.8c0 .5-.6.9-1.4.9-1.8 0-16.6 8.5-22.5 13-7.1 5.4-22.2 21.1-26.9 28.1-3.6 5.3-11.2 19.8-11.9 22.8-.1.5-1 2.9-1.8 5.3-1.7 4.7-4 14.8-5.1 22.7-.4 2.7-.8 165-.8 360.8-.1 329.4 0 356.6 1.6 366 1.9 11.5 2.6 14.7 4.2 19.1 7.4 20.1 15.4 32.6 30 46.9 4.4 4.3 9.8 9 12 10.4 2.2 1.4 4.6 3.1 5.3 3.8.7.7 2.6 1.8 4.3 2.6 1.6.7 3 1.7 3 2.1 0 .5.4.5 1 .2.5-.3 1-.2 1 .2 0 .9 1 1.3 13 6 8.4 3.2 13.6 4.5 28 6.8 5.2.8 31.5.4 31.5-.5 0-.1.9-.3 2-.4 10.1-1.2 32.3-8.5 33.3-10.8.2-.5.7-.6 1.1-.4.3.3 4-1.8 8-4.5 4.1-2.7 7.5-4.9 7.7-4.9.7 0 6.6-5.4 13.2-11.9 6.5-6.5 17.2-20.2 17.2-22 0-.5.3-1.1.8-1.3.9-.4 7.5-13.9 7.5-15.6 0-.6.3-1.2.7-1.2.6 0 3.5-8.9 4.6-14 1.3-6.4 2.4-12.8 2.9-16.5.2-2.2.5-41.9.5-88.3 0-46.3.4-84.2.8-84.3.4 0 25.9-.2 56.7-.4 30.8-.2 58.3-.6 61-.9 2.8-.3 7.7-.8 11-1.1 3.4-.3 7-.7 8-.9 1.1-.2 4.5-.7 7.5-1.1 3-.4 6.4-.9 7.5-1.1 1.1-.3 3.5-.7 5.4-1 7.5-1.3 25.2-5.4 26.6-6.3.6-.3 1.7-.6 2.5-.6.8-.1 4.2-.9 7.5-2 3.3-1 6.2-1.9 6.5-1.9.3-.1 1-.4 1.5-.7.6-.4 4.2-1.7 8-2.9 3.9-1.2 7.5-2.5 8-2.9.6-.3 1.2-.6 1.5-.6.3-.1 2.7-1.1 5.4-2.3 2.7-1.2 5-2.2 5.2-2.2 1.7 0 29.5-14.7 36.2-19.1 2.4-1.6 4.7-2.9 5.2-2.9s1.8-1 3-2.2c1.1-1.2 2.6-2.3 3.4-2.4 1.2-.2 4-2.2 7.2-5.2.8-.7 1.4-1.1 1.4-.7 0 .3 1.5-.8 3.3-2.4 1.7-1.7 3.5-3.1 3.9-3.1.4 0 1.3-.6 2-1.3.7-.7 2.6-2.3 4.3-3.5 10.8-8.4 28-25.4 39.6-39.2 10.4-12.4 27.9-37.4 27.9-40 0-.4.3-1 .8-1.2.7-.3 2.2-2.9 8.9-15.7 1.8-3.6 3.8-7 4.4-7.8.6-.7.9-1.3.5-1.3s0-1.3.9-3c.8-1.6 1.5-3.3 1.4-3.6 0-.4.3-1 .8-1.3.5-.3 1.7-2.9 2.7-5.6 1.1-2.8 2.7-6.8 3.7-9 2.1-4.7 7.9-23 10.7-33.5 3.1-11.5 4.2-17 6.2-30 .6-4.1 1.4-8.9 1.7-10.5.2-1.7.6-4.8.8-7 .2-2.2.7-7.6 1.1-12 .9-9.8 1-45.9 0-57.5-1.3-16.2-2.4-26.6-3.2-30.1-.2-1-.6-2.9-.9-4.2-.3-1.2-.8-4.2-1.1-6.7-.3-2.5-.8-5.3-1-6.3-1-4.4-1.3-5.5-2.2-9.2-.6-2.2-1.3-5.3-1.6-7-.3-1.6-1-4.1-1.5-5.5-.8-2.3-4.2-13.2-4.8-15.5-.6-2.5-3-8.5-3.6-9.1-.4-.4-.7-1.6-.7-2.6 0-1.8-.3-2.6-3.4-8.5-.9-1.7-1.6-3.6-1.6-4.2 0-1.6-15.5-32.4-17.8-35.5-.5-.6-2-3.1-3.3-5.6-1.3-2.5-3.2-5.4-4.1-6.4-1-1.1-1.8-2.5-1.8-3.1 0-.7-1.1-2.5-2.5-4.1-1.4-1.6-2.8-3.7-3.1-4.7-.3-.9-1-1.7-1.5-1.7s-.9-.7-.9-1.5-.4-1.5-1-1.5c-.5 0-1-.7-1-1.5s-.4-1.5-.9-1.5c-.4 0-2.1-1.9-3.7-4.2-1.6-2.3-3.6-5-4.4-5.9-.8-.8-3.3-3.8-5.5-6.5-7.3-8.9-27.9-28.8-38.5-37.2-5.8-4.6-11.3-9-12.3-9.8-.9-.8-2.1-1.4-2.6-1.4s-1.1-.4-1.3-.8c-.4-1.1-15.7-11.2-16.9-11.2-.5 0-.9-.3-.9-.8 0-.4-1-1.2-2.3-1.8-1.2-.7-10.2-5.3-20-10.3-9.8-5-18.6-9.1-19.7-9.1-1 0-2-.3-2.2-.8-.2-.6-10.7-4.7-14.3-5.6-.5-.2-2.3-.8-3.8-1.4-1.5-.7-4-1.5-5.5-1.8-1.5-.4-3.3-1.1-3.9-1.7-.7-.5-1.3-.7-1.3-.4 0 .3-3-.3-6.7-1.4-7.9-2.3-27.4-6.6-34.1-7.5-2.6-.3-5.8-.9-7.2-1.2-1.4-.3-66.4-.7-144.5-.9-139.6-.2-142.1-.2-148 1.8zm250.2 222.3c3.4.2 7 .7 8 1 1 .3 3.4.8 5.3 1.1 7.8 1.3 26 9.3 29.7 13.1.8.8 1.8 1.4 2.3 1.4 1.2 0 15 13.6 15 14.9 0 .6.4 1.1.8 1.1 1.9 0 12.4 18.4 16.3 28.5 1.6 4 3 9.7 4.5 18.5 2.3 12.1 1.8 38-.7 47.4-.6 2.2-1.3 4.8-1.4 5.6-.2.8-.4 1.6-.5 1.7-.2.2-.3.6-.4 1-.5 3.1-4.6 12.1-8.5 18.8-4 6.9-20.6 25.8-22.5 25.6-.3-.1-3 1.4-5.8 3.2-7.3 4.6-18.6 9.6-23.3 10.3-.5.1-1.2.3-1.5.4-1.5.6-9.2 1.9-15 2.6-2.5.3-26.3.6-53 .7l-48.5.2-.3-98c-.1-53.9 0-98.5.2-99 .3-1 85.9-1.1 99.3-.1zm1388-223.8c-.2.2-3 .6-6.2 1-3.3.3-6.7 1-7.6 1.5-.9.4-1.9.6-2.2.2-.4-.3-1.4 0-2.3.8-1 .8-1.9 1.3-2.1 1.1-1.9-1.8-22.3 7.3-33.6 15-4.9 3.4-17 13.9-19.9 17.3-.4.5-2.1 2.6-3.8 4.5-1.6 1.9-2.9 3.8-2.9 4.3 0 .4-1.2 2-2.6 3.5-1.4 1.5-2.5 3.2-2.5 3.9 0 .6-.6 1.8-1.3 2.5-2.6 2.6-10.8 23-11.1 27.4 0 1.3-.3 2.4-.6 2.4s-.6.8-.7 1.7c-.1 1-.6 4.7-1.2 8.3-1.6 9.9-.7 35.5 1.6 44 .3 1.4.7 2.7.7 3 .8 3.7 3.1 10.7 3.7 11.4.5.6.9 1.7.9 2.5 0 4.4 13.3 26.3 20.3 33.6 1.6 1.6 3.4 3.7 4.1 4.5.6.8 3.1 3.1 5.6 5 2.5 1.9 4.7 3.8 4.8 4.2.2.4 1 .8 1.8.8s1.4.4 1.4 1c0 .5.7 1 1.5 1s1.5.4 1.5 1c0 .5.7 1 1.5 1s1.5.3 1.5.8c0 .4 2.5 1.8 5.5 3.2 3 1.4 5.5 2.8 5.5 3.2 0 .5 1.1.8 2.5.8s2.5.5 2.5 1.1c0 .5.5.7 1 .4.6-.3 1-.1 1 .6s.3 1 .6.6c.3-.3 2.5.1 4.7.9 5.7 2 14.6 4.1 20.6 4.8 1.5.2 3.3.6 4 1 .6.4 1.1.2 1.1-.4 0-.7.6-.8 1.8-.2.9.4 38.9.8 84.4.8 54.6-.1 82.8.2 82.9.9 0 .5.2 135.3.3 299.5.2 164.2.6 300.1 1 302 .4 1.9.8 4.5.9 5.7.2 1.2.6 2.5 1 2.9.4.4.7 1.6.7 2.6 0 6.8 11 30.5 18.7 40.3 2.8 3.6 12.4 14.5 13.8 15.7.6.5 2.6 2.2 4.5 3.9 8.5 7.5 26.5 18.1 35.5 20.8 2.2.7 4.7 1.5 5.5 1.8.8.3 2 .7 2.5.7.6.1 2.8.7 5 1.4 13 3.8 39.3 3.7 56.5-.1 8.5-1.9 10.8-2.8 22.5-8.3 22.8-10.7 44.8-32.5 54.8-54.4 3.3-7.2 7.8-20 7.1-20-.3 0 0-.8.5-1.8s1.3-3.8 1.6-6.2c.4-2.5 1-5.6 1.2-7 .3-1.4.6-136.6.7-300.5.1-164 .5-298.5.8-299.1.4-.6 31.4-.9 82.5-.8 45 0 82.2-.1 82.6-.4.5-.2 3.2-.6 6-.8 2.9-.2 6.2-.6 7.5-.9 1.2-.3 3.2-.7 4.3-1 8.1-1.7 14.4-4 25.9-9.3 3.1-1.5 8.8-4.9 11.5-6.9.6-.5 2.8-2.1 5-3.7 6.2-4.4 18.4-17.5 24.3-26 2.9-4.2 5-7.6 4.6-7.6-.4 0-.1-.8.7-1.8 2.2-2.7 3.9-6 3.9-7.6 0-.8.3-1.6.8-1.8 1.1-.5 6.4-17.7 5.7-18.8-.3-.5-.2-1 .3-1s.9-.6.9-1.3c.1-.6.5-3 .9-5.2 1-5 1.1-30.2.2-37.3-.7-4.8-3.8-16.7-5.7-21.7-2-5.3-11.5-23.5-12.2-23.5-.5 0-.9-.5-.9-1 0-1-3.3-5.1-8.2-10.2-1.4-1.5-2.5-2.8-2.2-2.8.2 0-1.5-1.7-3.8-3.8-2.3-2-5.1-4.6-6.3-5.7-2.8-2.7-8.1-6.7-11.4-8.5-1.4-.8-2.8-1.8-3.1-2.1-1.1-1.4-13.4-7.1-20.6-9.5-18.6-6.2 4.9-5.7-309.6-5.9-157.8-.1-286.9 0-287.1.1zm-746.1 7.1c-.1.1-3.3.4-7.1.7-8.5.6-12.6 1.3-21 3.3-1.6.4-3.2.7-3.5.8-1.7.3-9.2 3.1-13 4.8-2.5 1.1-5.1 2.1-5.9 2.3-.8.1-1.7.6-2 1.1-.3.4-1.9 1.5-3.6 2.3-1.6.8-3.4 1.8-4 2.2-.5.5-3.5 2.6-6.5 4.8-6.8 4.9-17.8 15.7-18.6 18.2-.3 1-.9 1.8-1.4 1.8-1.5 0-12.8 19.8-13.4 23.5-.1.5-.7 1.9-1.3 3-.6 1.1-1.1 2.3-1.1 2.8-.1.4-.7 3.1-1.6 6-1.4 5.1-1.8 7.1-3.2 17.2-1.2 8.6-1.1 22.6.3 32.5 1.1 8.3 1.8 11.5 4 19 .2.8.4 1.6.4 1.7-.1 1.1 6.4 15 7.3 15.5.6.4.8.8.3.8-1 0 3.5 7.1 8.9 14 4.9 6.3 9.6 11.2 14.8 15.5 2 1.6 4.3 3.6 5.1 4.2.7.7 1.8 1.3 2.4 1.3.6 0 1.1.4 1.1.8 0 .8 18 10.2 23.5 12.3 2.7 1 8.7 2.8 11.4 3.4 1.1.3 3.1.7 4.4 1 1.2.3 4 .9 6.2 1.2 5.3 1 376.4 1.5 377.9.6.6-.4 2.2-.8 3.6-.9 2.5-.2 5.3-.8 10-1.9 1.4-.3 3.2-.8 4-1 .8-.2 1.6-.4 1.8-.5.1-.2.5-.3 1-.4 2.6-.5 19.5-8.1 21.7-9.9.6-.4 3-2.1 5.5-3.7 3.8-2.4 7.6-5.6 14.5-11.9.6-.5 2.6-2.8 4.5-5.1s4-4.7 4.5-5.3c1.1-1.3 4.2-5.9 6.2-9.2 4.9-8.1 11.9-25.6 11-27.6-.1-.3.3-1.2.9-2 .6-.8 1-2.4.9-3.7-.1-1.2.1-2.2.5-2.2.3 0 .6-.8.7-1.8.7-9.9 1.2-15.8 1.3-16.2.6-2.2-.6-21.5-1.6-26.3-.2-1.2-.7-3.8-1-5.7-.3-1.9-1-4.3-1.5-5.3-.5-.9-.7-1.7-.5-1.7.7 0-4.3-13.2-5.6-14.8-.6-.6-.8-1.2-.4-1.2.9 0-3.5-7.8-8.6-15.4-5-7.3-17.4-19.8-24.3-24.6-2.7-1.8-5.2-3.7-5.5-4-.3-.4-4.3-2.5-9-4.7-14.8-7-28-10.3-42.5-10.6-4.4-.1-8.3-.7-8.7-1.2-.5-.6-.8-.5-.8.3 0 .7-.5 1-1.1.7-.9-.6-13.9-1-16.4-.5-.5.1-1.4.1-2 0-2.9-.6-10.5-.4-10.5.3 0 .5-.5.5-1 .2-1.3-.8-14.4-1-15.7-.2-.6.4-1.3.4-1.6 0-1.1-1-15.6-.9-14.9.1.3.6-.3.6-1.4.2-1.7-.7-14.3-1.1-16.9-.6-.5.1-1.4.1-2 0-2.7-.5-10.5-.4-10.5.2 0 .4-1.2.3-2.7-.1-1.6-.4-4-.4-5.5 0s-2.9.4-3.2.1c-1-.9-20.4-.8-19.8.2.3.5-.1.6-.7.1-1.5-.9-15.4-1.1-16.8-.2-.6.4-1.3.4-1.6 0-1.1-1-15.6-.9-14.9.1.3.6-.3.6-1.4.2-1.7-.7-14.3-1.1-16.9-.6-.5.1-1.4.1-2 0-2.7-.5-10.5-.4-10.5.2 0 .4-1.2.3-2.7-.1-1.6-.4-4-.4-5.5 0s-2.9.4-3.2.1c-1-.9-20.4-.8-19.8.2.3.5-.1.6-.7.1-1.5-.9-15.4-1.1-16.8-.2-.6.4-1.3.4-1.6 0-1.1-1-15.6-.9-14.9.1.3.6-.3.6-1.4.2-1.7-.7-14.3-1.1-16.9-.6-.5.1-1.4.1-2 0-2.7-.5-10.5-.4-10.5.2 0 .4-1.2.3-2.7-.1-1.6-.4-4-.4-5.5 0s-2.9.4-3.2.1c-1-.9-20.4-.8-19.8.2.3.5-.1.6-.8.1-1.5-.9-16.3-1-17.9-.1-.6.4-1.1.4-1.1-.1 0-.7-5.7-1.2-6.4-.6zm-11.1 359.4c-2.7.4-7 1-9.5 1.3-4.9.7-16.7 4-21.5 6.1-1.6.7-4.5 1.9-6.2 2.6-1.8.8-3.3 1.7-3.3 2.1 0 .5-.9.8-2 .8s-2 .4-2 1c0 .5-.5 1-1.1 1-2 0-13.7 8.9-20.3 15.3-5.5 5.4-10.9 12.1-15.4 19.2-2.2 3.5-8.3 16.3-8.7 18.2-.2 1-.4 1.9-.5 2-.2.2-.3.6-.4 1-.2.5-.9 2.8-1.6 5.3-.8 2.5-1.5 5.2-1.6 6-.2.8-.5 2.6-.9 4-2.4 10.2-2.4 35.4 0 46 .3 1.4 1 4.5 1.6 7 1.2 5.6.9 4.7 5.2 16 7.7 20.4 29.3 42.6 50.7 52.3 13.9 6.3 21 8.3 36.5 10.4 5.9.8 365.1.8 371-.1 2.8-.3 6.4-.8 8-1 1.7-.3 3.1-.5 3.3-.6.1-.2.5-.3 1-.4 6.3-1.4 12.4-3.2 15.2-4.4 1.9-.9 3.7-1.6 4-1.7 1.7-.4 9.1-4.4 12.7-6.7 2.3-1.6 4.4-2.8 4.7-2.8.6 0 2.6-1.6 7.6-6.1 1.7-1.6 3.4-2.9 3.6-2.9 2.3 0 21.4-24.8 21.4-27.7 0-.7.4-1.3.9-1.3.7 0 1.8-2.4 2-4.5 0-.3.7-1.8 1.5-3.3 2.5-4.4 6.3-17.9 7.1-24.7.2-1.7.4-3 .5-3 .1 0 .3-1.6.4-3.5.1-1.9.5-4 .9-4.7.4-.6.3-1.4-.3-1.8-.6-.4-.8-1-.5-1.5.3-.5.6-3.8.6-7.2-.1-7.7-.6-12.6-2.6-24.3-1-6.1-6.6-22.8-8.3-24.8-.8-.9-1.1-1.7-.6-1.7.5 0 .4-.4-.2-.8-.5-.4-1.8-2.3-2.7-4.2-1.9-3.7-3.9-7.2-4.7-8-.3-.3-2.3-2.8-4.5-5.5-7.3-9.1-16.6-17.4-26-23.2-6.3-3.9-21.9-10.7-27-11.8-1.1-.3-4-.9-6.5-1.5-2.5-.5-5.8-1.3-7.5-1.6-4.1-.9-367.7-1.1-374-.3zm5.5 342.1c-5.2.3-10.8.9-12.5 1.2-1.6.3-4.6.8-6.5 1.1-7.7 1.3-30.9 10.6-31.8 12.7-.2.5-.8.8-1.4.8-1.6 0-14.7 9.9-19.3 14.5-5.8 5.9-13.5 15.7-13.5 17.2 0 .7-.4 1.3-.8 1.3-.7 0-6.6 10.5-6.7 12-.1.3-.6 1.4-1.2 2.5-1.4 2.7-3.8 9.8-3.5 10.7.1.5-.3.8-.9.8-.5 0-.8.4-.5.8.3.5-.1 3.3-1 6.3-2.6 9.7-3.6 31.3-2 44.1.7 5.5 3.9 19.6 5.3 22.8.3.8.7 1.7.8 2 .1.3.9 2.2 1.8 4.4.9 2.1 1.7 4 1.7 4.2 0 .8 7.6 13.2 9.7 15.9 8 10 10.8 13.1 15.8 17 2.1 1.6 4.3 3.5 4.9 4 .6.6 3.6 2.6 6.6 4.5 3 1.9 5.7 3.8 5.8 4.2.2.5.7.6 1.2.3s1.6.2 2.4 1.1c.9.8 1.6 1.2 1.6.9 0-.4 1-.1 2.3.7 2.4 1.6 14.4 6 16.5 6.1.6 0 1.2.4 1.2.9s.4.7.8.4c.4-.3 2.6 0 4.8.5 2.1.5 5.7 1.2 7.9 1.6 5.4.9 371.8 1 377.5.1 5.6-.9 9.9-1.7 12.5-2.3 1.1-.2 2.3-.5 2.7-.5.4-.1 3.1-1.1 6-2.2s6.3-2.2 7.6-2.5c1.2-.3 2.2-.9 2.2-1.3 0-.5 1.3-1.1 2.9-1.5 1.6-.3 3.9-1.5 5.2-2.6 1.2-1 2.8-1.9 3.6-1.9.7 0 1.3-.5 1.3-1 0-.6.5-1 1.1-1 .6 0 1.6-.6 2.4-1.3.7-.6 2.8-2.3 4.6-3.7 8.8-6.7 20.9-20.7 25.4-29.3 1.1-2 2.3-3.7 2.7-3.7.5 0 .7-.3.6-.8-.1-.8.5-2.4 3.4-9.1 1.1-2.4 2.1-5.1 2.4-6 .2-.9 1.1-4.3 1.9-7.6 4-15.3 4.6-32.4 1.9-51-.8-5.3-1-6.3-1.4-6.8-.2-.2-.6-1.7-1.4-5.6-3.3-14.7-13.5-32.1-26.6-45.1-18.8-18.8-38-27.7-66-30.6-7.8-.8-350.5-1-362-.2z"/></svg>