<svg width="373" height="74" fill="none" xmlns="http://www.w3.org/2000/svg"><g clip-path="url(#clip0_4_2)"><path fill="#fff" d="M0 0h373v74H0z"/><path d="M21.688 52.563H10.374v-8.47h11.313c1.541 0 2.791-.26 3.75-.78.958-.521 1.656-1.24 2.093-2.157.459-.937.688-1.99.688-3.156 0-1.25-.23-2.406-.688-3.469a5.597 5.597 0 00-2.093-2.562c-.959-.667-2.209-1-3.75-1H14.5V68H3.531V22.5h18.157c3.645 0 6.78.667 9.406 2 2.646 1.333 4.677 3.167 6.093 5.5 1.417 2.313 2.126 4.958 2.126 7.938 0 2.937-.709 5.5-2.126 7.687-1.416 2.188-3.447 3.896-6.093 5.125-2.625 1.208-5.76 1.813-9.407 1.813zm53.593 7V68h-23v-8.438h23zM56.187 22.5V68H45.22V22.5h10.968zm43.626 9.563L88.719 68H76.938l16.718-45.5h7.469l-1.313 9.563zM109 68L97.875 32.062 96.437 22.5H104L120.812 68H109zm-.438-16.969V59.5H85.219v-8.469h23.343zm39.032 4.875c0-.708-.104-1.343-.313-1.906-.208-.583-.593-1.125-1.156-1.625s-1.375-1-2.437-1.5c-1.042-.52-2.417-1.063-4.126-1.625-2-.667-3.927-1.417-5.781-2.25-1.854-.854-3.51-1.844-4.969-2.969-1.458-1.146-2.614-2.479-3.468-4-.854-1.541-1.282-3.333-1.282-5.375 0-1.958.438-3.718 1.313-5.281.875-1.583 2.094-2.927 3.656-4.031 1.584-1.125 3.438-1.98 5.563-2.563 2.125-.604 4.448-.906 6.968-.906 3.334 0 6.271.583 8.813 1.75 2.563 1.146 4.563 2.781 6 4.906 1.458 2.104 2.187 4.594 2.187 7.469h-10.906c0-1.146-.239-2.156-.718-3.031-.459-.875-1.157-1.563-2.094-2.063-.938-.5-2.115-.75-3.532-.75-1.374 0-2.531.209-3.468.625-.938.417-1.646.98-2.125 1.688A3.902 3.902 0 00135 34.75c0 .688.188 1.313.562 1.875.396.542.948 1.052 1.657 1.531.729.48 1.604.938 2.625 1.375 1.041.438 2.208.865 3.5 1.282 2.416.77 4.562 1.635 6.437 2.593 1.896.938 3.49 2.01 4.781 3.219 1.313 1.188 2.303 2.542 2.969 4.063.688 1.52 1.031 3.24 1.031 5.156 0 2.041-.395 3.854-1.187 5.437-.792 1.584-1.927 2.927-3.406 4.032-1.479 1.083-3.25 1.906-5.313 2.468-2.062.563-4.364.844-6.906.844-2.333 0-4.635-.292-6.906-.875-2.25-.604-4.292-1.52-6.125-2.75a14.255 14.255 0 01-4.407-4.781c-1.083-1.959-1.624-4.282-1.624-6.969h11c0 1.333.177 2.458.531 3.375.354.917.875 1.656 1.562 2.219.688.541 1.531.937 2.531 1.187 1 .23 2.146.344 3.438.344 1.396 0 2.521-.198 3.375-.594.854-.416 1.479-.958 1.875-1.625a4.429 4.429 0 00.594-2.25zM186.25 22.5V68h-10.969V22.5h10.969zm13.688 0v8.469h-38.032V22.5h38.032zm16.312 0V68h-10.938V22.5h10.938zm27.781 21.813v8.156H225.25v-8.157h18.781zm26.907 8.25h-11.313v-8.47h11.313c1.541 0 2.791-.26 3.75-.78.958-.521 1.656-1.24 2.093-2.157.459-.937.688-1.99.688-3.156 0-1.25-.229-2.406-.688-3.469a5.595 5.595 0 00-2.093-2.562c-.959-.667-2.209-1-3.75-1h-7.188V68h-10.969V22.5h18.157c3.645 0 6.781.667 9.406 2 2.646 1.333 4.677 3.167 6.094 5.5 1.416 2.313 2.124 4.958 2.124 7.938 0 2.937-.708 5.5-2.124 7.687-1.417 2.188-3.448 3.896-6.094 5.125-2.625 1.208-5.761 1.813-9.406 1.813zm37.25-20.5L297.094 68h-11.782l16.719-45.5h7.469l-1.312 9.563zM317.375 68L306.25 32.062l-1.438-9.562h7.563L329.188 68h-11.813zm-.437-16.969V59.5h-23.344v-8.469h23.344zM343.5 22.5V68h-10.969V22.5H343.5zm27.156 0l-17.625 23.063-10.312 11.28-2-10.062 6.593-10 9.813-14.281h13.531zM357.688 68l-11.75-20.5 8.531-6.281L370.656 68h-12.968z" fill="#004D90"/><path d="M94.862 3.336V14h-.593V3.336h.593zm3.465 4.431V14h-.579V6.075h.571l.008 1.692zm-.11 1.663l-.286-.337c.044-.42.147-.82.308-1.201.166-.381.383-.718.652-1.011a3.11 3.11 0 01.952-.696c.366-.17.769-.256 1.208-.256.396 0 .75.056 1.062.168.313.108.576.278.791.513.22.234.386.537.498.908.113.366.169.813.169 1.34V14h-.579V8.858c0-.625-.085-1.108-.256-1.45-.171-.346-.41-.59-.718-.732a2.485 2.485 0 00-1.062-.213c-.469 0-.874.105-1.216.315a2.727 2.727 0 00-.835.784c-.22.313-.388.637-.505.974a3.268 3.268 0 00-.183.894zm8.342-1.663V14h-.579V6.075h.572l.007 1.692zm-.11 1.663l-.285-.337c.044-.42.146-.82.307-1.201.166-.381.383-.718.652-1.011a3.11 3.11 0 01.952-.696c.366-.17.769-.256 1.209-.256.395 0 .749.056 1.062.168.312.108.576.278.791.513.219.234.385.537.498.908.112.366.168.813.168 1.34V14h-.578V8.858c0-.625-.086-1.108-.257-1.45-.171-.346-.41-.59-.718-.732a2.479 2.479 0 00-1.062-.213c-.468 0-.874.105-1.215.315a2.718 2.718 0 00-.835.784c-.22.313-.388.637-.506.974a3.287 3.287 0 00-.183.894zm7.207.747v-.279c0-.58.083-1.113.249-1.596a3.8 3.8 0 01.718-1.253 3.206 3.206 0 011.099-.827 3.407 3.407 0 011.428-.293c.522 0 .998.097 1.428.293.43.195.798.47 1.106.827.313.352.552.77.718 1.253a4.89 4.89 0 01.249 1.596v.279a4.89 4.89 0 01-.249 1.596 3.782 3.782 0 01-.711 1.26 3.216 3.216 0 01-1.106.82 3.357 3.357 0 01-1.42.293 3.43 3.43 0 01-1.436-.293 3.323 3.323 0 01-1.106-.82 3.885 3.885 0 01-.718-1.26 4.89 4.89 0 01-.249-1.596zm.586-.279v.279c0 .459.064.896.191 1.31.131.41.322.777.571 1.1.249.317.554.568.915.754.362.18.777.27 1.246.27.459 0 .869-.09 1.23-.27a2.67 2.67 0 00.908-.755c.249-.322.437-.688.564-1.098a4.3 4.3 0 00.198-1.311v-.279c0-.449-.066-.878-.198-1.289a3.447 3.447 0 00-.564-1.098 2.707 2.707 0 00-.915-.762 2.617 2.617 0 00-1.238-.286 2.62 2.62 0 00-1.238.286c-.356.186-.662.44-.915.762a3.447 3.447 0 00-.564 1.098c-.127.41-.191.84-.191 1.29zm10.466 3.487l2.769-7.31h.615L125.053 14h-.476l.131-.615zm-2.592-7.31l2.783 7.324.124.601h-.483l-3.04-7.925h.616zm12.29 6.468V8.448c0-.415-.088-.771-.264-1.07a1.693 1.693 0 00-.769-.68c-.337-.161-.749-.242-1.238-.242-.454 0-.862.08-1.223.242a2.06 2.06 0 00-.842.644 1.49 1.49 0 00-.308.916l-.586-.008c0-.302.071-.593.213-.871.146-.278.351-.525.615-.74a3.08 3.08 0 01.945-.52 3.64 3.64 0 011.201-.19c.557 0 1.047.095 1.472.285.43.186.764.467 1.003.843.24.376.359.844.359 1.406v3.911c0 .283.02.569.059.857.039.288.093.52.161.696V14h-.637a4.12 4.12 0 01-.125-.681 8.727 8.727 0 01-.036-.777zm.19-3.04l.015.505h-1.934c-.488 0-.925.047-1.311.14a3.209 3.209 0 00-.981.395c-.269.17-.474.373-.615.608a1.496 1.496 0 00-.213.79c0 .304.081.582.242.836.161.254.388.456.681.608.293.146.632.22 1.018.22.527 0 .994-.09 1.399-.271a3.05 3.05 0 001.033-.748c.278-.317.481-.683.608-1.098l.256.425a3.174 3.174 0 01-1.069 1.509c-.279.214-.606.39-.982.527a3.859 3.859 0 01-1.282.197c-.503 0-.942-.092-1.318-.278a2.155 2.155 0 01-.864-.776 2.117 2.117 0 01-.308-1.136c0-.366.083-.7.249-1.003.166-.303.405-.561.718-.776.317-.22.701-.386 1.15-.498a6.132 6.132 0 011.531-.176h1.977zm5.676-3.428v.528h-3.793v-.528h3.793zm-2.329-2.095h.586v8.108c0 .425.052.747.154.967.108.215.247.361.418.44.175.073.363.11.564.11.141 0 .271-.008.388-.023.122-.014.244-.031.366-.05l.051.512a1.957 1.957 0 01-.417.073 4.07 4.07 0 01-.454.03 1.96 1.96 0 01-.872-.184c-.249-.122-.442-.332-.579-.63-.136-.302-.205-.717-.205-1.245V3.98zm4.974 2.095V14h-.586V6.075h.586zm-.77-2.402a.472.472 0 01.484-.484c.137 0 .251.05.344.147a.458.458 0 01.139.337.458.458 0 01-.139.337.48.48 0 01-.344.132.492.492 0 01-.352-.132.472.472 0 01-.132-.337zm2.74 6.504v-.279c0-.58.083-1.113.249-1.596a3.8 3.8 0 01.718-1.253 3.193 3.193 0 011.098-.827c.43-.196.906-.293 1.428-.293.523 0 .999.097 1.429.293.429.195.798.47 1.106.827.312.352.551.77.717 1.253a4.89 4.89 0 01.249 1.596v.279a4.89 4.89 0 01-.249 1.596 3.797 3.797 0 01-.71 1.26 3.226 3.226 0 01-1.106.82 3.365 3.365 0 01-1.421.293 3.434 3.434 0 01-1.436-.293 3.32 3.32 0 01-1.105-.82 3.885 3.885 0 01-.718-1.26 4.89 4.89 0 01-.249-1.596zm.586-.279v.279c0 .459.063.896.19 1.31.132.41.322.777.571 1.1.249.317.555.568.916.754.361.18.776.27 1.245.27.459 0 .869-.09 1.23-.27.362-.186.665-.437.909-.755.249-.322.437-.688.564-1.098a4.33 4.33 0 00.197-1.311v-.279c0-.449-.066-.878-.197-1.289a3.447 3.447 0 00-.564-1.098 2.71 2.71 0 00-.916-.762 2.614 2.614 0 00-1.238-.286c-.463 0-.876.096-1.237.286a2.8 2.8 0 00-.916.762 3.447 3.447 0 00-.564 1.098c-.127.41-.19.84-.19 1.29zm8.869-2.13V14h-.578V6.075h.571l.007 1.692zm-.11 1.662l-.285-.337c.044-.42.146-.82.307-1.201a3.64 3.64 0 01.652-1.011 3.12 3.12 0 01.952-.696c.367-.17.769-.256 1.209-.256.395 0 .749.056 1.062.168.312.108.576.278.791.513.22.234.386.537.498.908.112.366.168.813.168 1.34V14h-.578V8.858c0-.625-.086-1.108-.257-1.45-.17-.346-.41-.59-.717-.732a2.485 2.485 0 00-1.062-.213c-.469 0-.874.105-1.216.315a2.73 2.73 0 00-.835.784c-.22.313-.388.637-.505.974a3.254 3.254 0 00-.184.894zm11.558-6.094h3.42c.704 0 1.321.12 1.853.359.533.24.948.588 1.246 1.047.302.46.454 1.023.454 1.692 0 .513-.11.977-.33 1.392a2.99 2.99 0 01-.893 1.032 3.076 3.076 0 01-1.275.528l-.256.095h-3.933l-.015-.542h3.45c.591 0 1.081-.12 1.472-.359.395-.24.691-.55.886-.93.2-.386.3-.791.3-1.216 0-.532-.119-.986-.358-1.362a2.283 2.283 0 00-1.019-.88c-.439-.21-.966-.314-1.582-.314h-2.827V14h-.593V3.336zM172.58 14l-2.857-4.731.659-.008 2.827 4.637V14h-.629zm5.683.146a3.35 3.35 0 01-1.384-.285 3.441 3.441 0 01-1.113-.813 3.86 3.86 0 01-.747-1.245 4.53 4.53 0 01-.264-1.575v-.322c0-.591.088-1.128.264-1.612.18-.488.424-.908.732-1.26.308-.356.662-.63 1.062-.82.405-.19.837-.285 1.296-.285.464 0 .884.085 1.26.256.376.171.698.41.967.718.268.307.474.674.615 1.098.142.425.213.894.213 1.407v.49h-6.043v-.534h5.464v-.095a3.273 3.273 0 00-.308-1.385 2.515 2.515 0 00-.842-1.025c-.366-.264-.808-.396-1.326-.396-.415 0-.793.088-1.135.264-.337.176-.627.42-.871.732a3.317 3.317 0 00-.564 1.092 4.45 4.45 0 00-.198 1.355v.322c0 .469.073.908.22 1.318.146.41.351.772.615 1.084.263.308.574.55.93.725.356.176.747.264 1.172.264.459 0 .879-.08 1.26-.242.38-.16.727-.444 1.04-.85l.38.287c-.175.253-.388.48-.637.68a2.9 2.9 0 01-.886.477 3.562 3.562 0 01-1.172.175zm5.391-11.396V14h-.586V2.75h.586zm3.208 3.325V14h-.586V6.075h.586zm-.769-2.402a.472.472 0 01.483-.484c.137 0 .252.05.344.147a.46.46 0 01.14.337.459.459 0 01-.14.337.479.479 0 01-.344.132.49.49 0 01-.351-.132.472.472 0 01-.132-.337zm8.21 8.87V8.448c0-.415-.088-.771-.263-1.07a1.698 1.698 0 00-.769-.68c-.337-.161-.75-.242-1.238-.242-.454 0-.862.08-1.223.242a2.057 2.057 0 00-.843.644 1.489 1.489 0 00-.307.916l-.586-.008c0-.302.071-.593.212-.871a2.4 2.4 0 01.615-.74c.269-.22.584-.393.945-.52.366-.127.767-.19 1.201-.19.557 0 1.048.095 1.473.285.429.186.764.467 1.003.843.239.376.359.844.359 1.406v3.911c0 .283.019.569.058.857.039.288.093.52.162.696V14h-.638a4.13 4.13 0 01-.124-.681 8.375 8.375 0 01-.037-.777zm.191-3.04l.014.505h-1.933c-.489 0-.926.047-1.311.14a3.225 3.225 0 00-.982.395c-.268.17-.473.373-.615.608a1.496 1.496 0 00-.212.79c0 .304.08.582.241.836.161.254.388.456.681.608.293.146.633.22 1.019.22.527 0 .993-.09 1.398-.271a3.03 3.03 0 001.033-.748c.278-.317.481-.683.608-1.098l.256.425a3.174 3.174 0 01-1.069 1.509c-.278.214-.605.39-.981.527a3.863 3.863 0 01-1.282.197c-.503 0-.942-.092-1.318-.278-.372-.19-.66-.45-.865-.776a2.116 2.116 0 01-.307-1.136c0-.366.083-.7.249-1.003a2.26 2.26 0 01.717-.776c.318-.22.701-.386 1.15-.498a6.137 6.137 0 011.531-.176h1.978zm2.849-6.753h.586v9.712L197.907 14h-.564V2.75zm6.196 7.207v.154c0 .6-.068 1.147-.205 1.64a3.83 3.83 0 01-.586 1.275 2.665 2.665 0 01-.937.828 2.685 2.685 0 01-1.268.293c-.454 0-.861-.069-1.223-.206a2.848 2.848 0 01-.923-.564 3.054 3.054 0 01-.629-.842 3.826 3.826 0 01-.33-1.033V8.771c.083-.416.208-.794.374-1.136.166-.346.376-.647.629-.9a2.56 2.56 0 01.901-.594 3.154 3.154 0 011.187-.212c.478 0 .903.095 1.274.285.376.186.691.454.945.806.259.347.454.77.586 1.267.137.493.205 1.05.205 1.67zm-.593.154v-.154c0-.498-.049-.96-.147-1.384a3.364 3.364 0 00-.454-1.106 2.158 2.158 0 00-.769-.733c-.312-.175-.681-.263-1.106-.263-.469 0-.864.078-1.186.234a2.3 2.3 0 00-.784.593 3.13 3.13 0 00-.476.791 4.927 4.927 0 00-.249.791v2.586c.088.386.242.742.461 1.07.225.321.523.58.894.776.376.195.828.293 1.355.293.42 0 .784-.088 1.091-.264.313-.176.569-.42.769-.733.2-.312.349-.68.447-1.106.103-.424.154-.888.154-1.391zm3.354-4.036V14h-.586V6.075h.586zm-.769-2.402a.472.472 0 01.484-.484.46.46 0 01.344.147.458.458 0 01.139.337.458.458 0 01-.139.337.482.482 0 01-.344.132.492.492 0 01-.352-.132.472.472 0 01-.132-.337zm3.977-.923V14h-.586V2.75h.586zm3.208 3.325V14h-.586V6.075h.586zm-.769-2.402a.472.472 0 01.484-.484.46.46 0 01.344.147.458.458 0 01.139.337.458.458 0 01-.139.337.482.482 0 01-.344.132.492.492 0 01-.352-.132.472.472 0 01-.132-.337zm6.109 2.402v.528h-3.794v-.528h3.794zm-2.329-2.095h.585v8.108c0 .425.052.747.154.967.108.215.247.361.418.44.176.073.364.11.564.11.141 0 .271-.008.388-.023.122-.014.244-.031.366-.05l.051.512a1.957 1.957 0 01-.417.073c-.171.02-.322.03-.454.03a1.96 1.96 0 01-.872-.184c-.249-.122-.442-.332-.578-.63-.137-.302-.205-.717-.205-1.245V3.98zm6.716 9.244l2.637-7.149h.637l-3.457 9.221a8.076 8.076 0 01-.242.586c-.098.22-.225.43-.381.63s-.359.364-.608.49c-.244.133-.547.199-.908.199-.083 0-.193-.01-.329-.03a1.26 1.26 0 01-.293-.058l-.008-.513c.069.015.159.027.271.037.113.014.191.022.235.022.322 0 .59-.064.805-.19.22-.123.403-.299.55-.528a3.98 3.98 0 00.388-.798l.703-1.92zm-2.717-7.149l2.812 7.2.169.6-.447.279-3.172-8.079h.638zm17.512 5.34c0-.318-.054-.601-.161-.85a1.705 1.705 0 00-.535-.674 3.994 3.994 0 00-.967-.557c-.4-.17-.893-.336-1.479-.498a14.275 14.275 0 01-1.458-.476 5.227 5.227 0 01-1.106-.6 2.354 2.354 0 01-.696-.799c-.161-.312-.241-.68-.241-1.106 0-.41.088-.778.263-1.105.176-.328.423-.606.74-.835a3.54 3.54 0 011.128-.535 5.05 5.05 0 011.421-.19c.718 0 1.345.136 1.882.41a3.09 3.09 0 011.26 1.12c.303.474.454 1.018.454 1.634h-.593a2.476 2.476 0 00-1.414-2.278c-.444-.23-.974-.345-1.589-.345-.635 0-1.174.098-1.619.293-.439.196-.774.455-1.003.777a1.76 1.76 0 00-.337 1.04c0 .268.049.52.146.754.103.235.269.45.499.645.234.195.549.38.944.556.401.171.899.337 1.494.498.547.142 1.038.303 1.473.484a4.78 4.78 0 011.128.622c.312.24.551.523.717.85.166.327.249.71.249 1.15a2.4 2.4 0 01-.278 1.165 2.607 2.607 0 01-.776.864 3.605 3.605 0 01-1.158.534 5.29 5.29 0 01-1.42.184c-.464 0-.931-.057-1.399-.169a4.12 4.12 0 01-1.275-.542 2.838 2.838 0 01-.93-.981c-.234-.406-.352-.899-.352-1.48h.594c0 .498.102.918.307 1.26.205.337.474.605.806.806.332.2.693.344 1.084.432a5.37 5.37 0 001.165.131c.595 0 1.12-.09 1.574-.27.459-.186.816-.442 1.07-.77.258-.332.388-.715.388-1.15zm5.237-5.34v.528h-3.794v-.528h3.794zm-2.329-2.095h.585v8.108c0 .425.052.747.154.967.108.215.247.361.418.44.176.073.364.11.564.11.141 0 .271-.008.388-.023.122-.014.244-.031.366-.05l.051.512a1.957 1.957 0 01-.417.073c-.171.02-.322.03-.454.03a1.96 1.96 0 01-.872-.184c-.249-.122-.442-.332-.578-.63-.137-.302-.205-.717-.205-1.245V3.98zm9.206 8.563V8.448c0-.415-.088-.771-.264-1.07a1.688 1.688 0 00-.769-.68c-.337-.161-.749-.242-1.237-.242-.455 0-.862.08-1.224.242a2.06 2.06 0 00-.842.644 1.49 1.49 0 00-.308.916l-.585-.008c0-.302.07-.593.212-.871.146-.278.352-.525.615-.74.269-.22.584-.393.945-.52.366-.127.767-.19 1.201-.19.557 0 1.048.095 1.472.285.43.186.765.467 1.004.843.239.376.359.844.359 1.406v3.911c0 .283.019.569.058.857.039.288.093.52.161.696V14h-.637a4.027 4.027 0 01-.124-.681 8.375 8.375 0 01-.037-.777zm.19-3.04l.015.505h-1.933a5.63 5.63 0 00-1.312.14 3.23 3.23 0 00-.981.395c-.269.17-.474.373-.615.608a1.496 1.496 0 00-.213.79c0 .304.081.582.242.836.161.254.388.456.681.608.293.146.633.22 1.018.22.528 0 .994-.09 1.399-.271a3.04 3.04 0 001.033-.748c.278-.317.481-.683.608-1.098l.256.425a3.174 3.174 0 01-1.069 1.509c-.278.214-.606.39-.982.527a3.857 3.857 0 01-1.281.197c-.503 0-.943-.092-1.319-.278a2.155 2.155 0 01-.864-.776 2.117 2.117 0 01-.308-1.136c0-.366.083-.7.25-1.003a2.26 2.26 0 01.717-.776c.318-.22.701-.386 1.15-.498a6.137 6.137 0 011.531-.176h1.977zm2.85-6.753h.586v9.712L252.956 14h-.564V2.75zm6.196 7.207v.154c0 .6-.068 1.147-.205 1.64a3.83 3.83 0 01-.586 1.275 2.668 2.668 0 01-.938.828 2.678 2.678 0 01-1.267.293c-.454 0-.862-.069-1.223-.206a2.848 2.848 0 01-.923-.564 3.077 3.077 0 01-.63-.842 3.86 3.86 0 01-.329-1.033V8.771a4.69 4.69 0 01.373-1.136 3.23 3.23 0 01.63-.9c.254-.26.554-.457.901-.594a3.154 3.154 0 011.187-.212c.478 0 .903.095 1.274.285.376.186.691.454.945.806.259.347.454.77.586 1.267.137.493.205 1.05.205 1.67zm-.593.154v-.154c0-.498-.049-.96-.147-1.384a3.385 3.385 0 00-.454-1.106 2.158 2.158 0 00-.769-.733c-.313-.175-.681-.263-1.106-.263-.469 0-.864.078-1.186.234a2.3 2.3 0 00-.784.593 3.13 3.13 0 00-.476.791 4.734 4.734 0 00-.249.791v2.586c.088.386.241.742.461 1.07.225.321.523.58.894.776.376.195.827.293 1.355.293.42 0 .783-.088 1.091-.264.313-.176.569-.42.769-.733.2-.312.349-.68.447-1.106.102-.424.154-.888.154-1.391zm3.354-4.036V14h-.586V6.075h.586zm-.769-2.402a.472.472 0 01.483-.484.46.46 0 01.345.147.462.462 0 01.139.337.462.462 0 01-.484.469.49.49 0 01-.351-.132.472.472 0 01-.132-.337zm3.977-.923V14h-.586V2.75h.586zm3.208 3.325V14h-.586V6.075h.586zm-.769-2.402a.472.472 0 01.483-.484.46.46 0 01.345.147.458.458 0 01.139.337.458.458 0 01-.139.337.483.483 0 01-.345.132.49.49 0 01-.351-.132.472.472 0 01-.132-.337zm6.108 2.402v.528h-3.793v-.528h3.793zm-2.329-2.095h.586v8.108c0 .425.052.747.154.967.108.215.247.361.418.44.175.073.363.11.564.11.141 0 .271-.008.388-.023.122-.014.244-.031.366-.05l.051.512a1.957 1.957 0 01-.417.073 4.07 4.07 0 01-.454.03 1.96 1.96 0 01-.872-.184c-.249-.122-.442-.332-.579-.63-.136-.302-.205-.717-.205-1.245V3.98zm6.717 9.244l2.636-7.149h.638l-3.457 9.221a8.076 8.076 0 01-.242.586c-.098.22-.225.43-.381.63s-.359.364-.608.49c-.244.133-.547.199-.908.199a2.4 2.4 0 01-.33-.03 1.273 1.273 0 01-.293-.058l-.007-.513c.068.015.159.027.271.037.112.014.19.022.234.022.323 0 .591-.064.806-.19.22-.123.403-.299.549-.528a3.93 3.93 0 00.389-.798l.703-1.92zm-2.718-7.149l2.813 7.2.168.6-.446.279-3.172-8.079h.637z" fill="#000"/></g><defs><clipPath id="clip0_4_2"><path fill="#fff" d="M0 0h373v74H0z"/></clipPath></defs></svg>