<svg width="150" height="58" fill="none" xmlns="http://www.w3.org/2000/svg"><path d="M7.363 53.826c-.938 0-1.728-.32-2.368-.96-.64-.64-.96-1.43-.96-2.368V7.17c0-.982.32-1.771.96-2.368.64-.64 1.43-.96 2.368-.96h12.8c3.2 0 6.038.704 8.512 2.112 2.475 1.408 4.395 3.37 5.76 5.888 1.408 2.474 2.112 5.333 2.112 8.576 0 3.114-.704 5.888-2.112 8.32-1.365 2.432-3.285 4.33-5.76 5.696-2.474 1.365-5.312 2.048-8.512 2.048h-9.472v14.016c0 .938-.32 1.728-.96 2.368-.597.64-1.386.96-2.368.96zm3.328-23.488h9.472c1.963 0 3.691-.427 5.184-1.28a9.297 9.297 0 003.52-3.52c.854-1.494 1.28-3.2 1.28-5.12 0-2.048-.426-3.84-1.28-5.376-.853-1.579-2.026-2.816-3.52-3.712-1.493-.896-3.221-1.344-5.184-1.344h-9.472v20.352z" fill="#004D90"/><path d="M4.995 52.866l-2.828 2.828 2.828-2.828zm0-48.064l2.73 2.924.05-.047.049-.049-2.829-2.828zm23.68 1.152L26.697 9.43l1.978-3.476zm5.76 5.888l-3.516 1.907.02.035.02.036 3.476-1.978zm0 16.896l-3.461-2.005-.014.023-.013.023 3.488 1.959zm-5.76 5.696l1.933 3.502-1.933-3.502zm-17.984 2.048v-4h-4v4h4zm-.96 16.384l-2.828-2.829-.049.049-.047.05 2.924 2.73zm.96-22.528h-4v4h4v-4zm14.656-1.28l-1.984-3.473 1.984 3.473zm3.52-3.52l3.473 1.984-3.473-1.984zm0-10.496l-3.518 1.902.01.02.012.02 3.496-1.942zM10.691 9.986v-4h-4v4h4zm-3.328 39.84c-.007 0 .078 0 .207.053.132.053.22.124.254.158l-5.657 5.657c1.42 1.42 3.24 2.132 5.196 2.132v-8zm.46.211a.798.798 0 01.16.254c.052.13.052.214.052.207h-8c0 1.955.711 3.776 2.132 5.196l5.657-5.657zm.212.46V7.17h-8v43.328h8zm0-43.327c0-.053.008.025-.053.175-.065.16-.164.294-.257.38L2.266 1.878C.713 3.327.036 5.227.036 7.17h8zm-.211.46a.8.8 0 01-.254.159c-.13.052-.214.053-.207.053v-8c-1.955 0-3.775.71-5.196 2.131L7.824 7.63zm-.46.212h12.8v-8h-12.8v8zm12.8 0c2.593 0 4.733.564 6.533 1.588l3.956-6.953C27.504.685 23.97-.158 20.163-.158v8zm6.533 1.588c1.822 1.037 3.21 2.454 4.222 4.319l7.032-3.814c-1.719-3.17-4.17-5.678-7.298-7.458L26.697 9.43zm4.262 4.39c1.02 1.792 1.588 3.95 1.588 6.598h8c0-3.839-.839-7.397-2.635-10.554l-6.953 3.956zm1.588 6.598c0 2.489-.555 4.557-1.573 6.316l6.923 4.008c1.798-3.105 2.65-6.584 2.65-10.324h-8zm-1.6 6.361c-.995 1.774-2.372 3.142-4.204 4.152l3.865 7.005c3.117-1.72 5.58-4.15 7.315-7.24l-6.976-3.917zm-4.204 4.152c-1.808.998-3.965 1.55-6.58 1.55v8c3.785 0 7.304-.812 10.445-2.545l-3.865-7.005zm-6.58 1.55h-9.472v8h9.472v-8zm-13.472 4v14.017h8V36.482h-8zm0 14.017c0 .007 0-.078.053-.207a.798.798 0 01.159-.254l5.657 5.657c1.42-1.42 2.131-3.24 2.131-5.196h-8zm.116-.362c.087-.093.222-.193.381-.257.15-.061.228-.053.175-.053v8c1.942 0 3.843-.678 5.292-2.231l-5.848-5.459zm3.884-15.798h9.472v-8h-9.472v8zm9.472 0c2.56 0 4.99-.562 7.169-1.807l-3.97-6.946c-.807.461-1.832.753-3.199.753v8zm7.169-1.807a13.296 13.296 0 005.008-5.009l-6.946-3.969a5.298 5.298 0 01-2.031 2.032l3.969 6.946zm5.008-5.009c1.238-2.165 1.807-4.571 1.807-7.104h-8c0 1.306-.284 2.314-.753 3.135l6.946 3.97zm1.807-7.104c0-2.615-.549-5.097-1.783-7.319l-6.993 3.885c.472.85.776 1.952.776 3.434h8zm-1.76-7.278c-1.184-2.19-2.854-3.964-4.982-5.24l-4.116 6.86c.86.515 1.536 1.216 2.06 2.184l7.037-3.804zM27.404 7.9c-2.19-1.315-4.648-1.914-7.242-1.914v8c1.332 0 2.33.296 3.126.774l4.116-6.86zm-7.242-1.914H10.69v8h9.472v-8zm-13.472 4v20.352h8V9.986h-8zM125.528 54c-.939 0-1.728-.32-2.368-.96-.64-.64-.96-1.43-.96-2.368V4.016h6.656v46.656c0 .939-.32 1.728-.96 2.368-.64.64-1.43.96-2.368.96zm-17.152-43.84c-.896 0-1.643-.277-2.24-.832-.555-.597-.832-1.344-.832-2.24 0-.896.277-1.621.832-2.176.597-.597 1.344-.896 2.24-.896h34.24c.896 0 1.621.299 2.176.896.597.555.896 1.28.896 2.176 0 .896-.299 1.643-.896 2.24-.555.555-1.28.832-2.176.832h-34.24z" fill="#004D90"/><path d="M123.16 53.04l-2.829 2.828 2.829-2.828zm-.96-49.024v-4h-4v4h4zm6.656 0h4v-4h-4v4zm-.96 49.024l2.828 2.828-2.828-2.828zm-21.76-43.712l-2.931 2.722.1.108.109.101 2.722-2.931zm0-4.416l-2.829-2.828 2.829 2.828zm38.656 0l-2.931 2.722.1.108.109.101 2.722-2.931zm0 4.416l2.828 2.828-2.828-2.828zM125.528 50c-.007 0 .077 0 .207.053a.789.789 0 01.253.159l-5.657 5.656c1.421 1.421 3.241 2.132 5.197 2.132v-8zm.46.212a.797.797 0 01.159.253c.052.13.053.214.053.207h-8c0 1.956.711 3.776 2.131 5.196l5.657-5.656zm.212.46V4.016h-8v46.656h8zm-4-42.656h6.656v-8H122.2v8zm2.656-4v46.656h8V4.016h-8zm0 46.656c0 .007 0-.078.053-.207a.8.8 0 01.158-.253l5.657 5.656c1.421-1.42 2.132-3.24 2.132-5.196h-8zm.211-.46a.81.81 0 01.254-.159c.129-.052.214-.053.207-.053v8c1.955 0 3.776-.71 5.196-2.132l-5.657-5.656zM108.376 6.16c-.032 0 .036-.004.16.042.131.049.244.123.322.195l-5.444 5.862c1.413 1.313 3.165 1.901 4.962 1.901v-8zm.691.446c.072.077.146.19.194.321.047.125.043.192.043.161h-8c0 1.797.588 3.549 1.901 4.962l5.862-5.444zm.237.482c0-.034.004.055-.056.213a1.285 1.285 0 01-.284.44l-5.657-5.657c-1.413 1.413-2.003 3.211-2.003 5.004h8zm-.34.652a1.027 1.027 0 01-.517.267c-.047.01-.073.009-.071.009v-8c-1.886 0-3.672.671-5.069 2.068l5.657 5.656zm-.588.276h34.24v-8h-34.24v8zm34.24 0c.002 0-.029 0-.085-.01a1.296 1.296 0 01-.67-.372l5.862-5.444C146.332.692 144.501.016 142.616.016v8zm-.546-.173a1.292 1.292 0 01-.372-.67c-.01-.056-.01-.087-.01-.085h8c0-1.886-.676-3.716-2.174-5.107l-5.444 5.862zm-.382-.755c0 .001 0-.024.008-.072a1.037 1.037 0 01.267-.517l5.657 5.657c1.397-1.396 2.068-3.183 2.068-5.068h-8zm.275-.588a1.27 1.27 0 01.44-.284c.158-.06.247-.056.213-.056v8c1.793 0 3.591-.59 5.004-2.004L141.963 6.5zm.653-.34h-34.24v8h34.24v-8zM61.175 55.992c-1.408 0-2.592-.448-3.552-1.344-.896-.896-1.344-2.048-1.344-3.456 0-1.472.448-2.656 1.344-3.552.96-.896 2.144-1.344 3.552-1.344h21.408c1.408 0 2.56.448 3.456 1.344.896.896 1.344 2.08 1.344 3.552 0 1.408-.448 2.56-1.344 3.456-.896.896-2.048 1.344-3.456 1.344H61.175z" fill="#004D90"/><path d="M57.623 54.648l-1.414 1.414.024.025.025.023 1.365-1.462zm0-7.008l-1.365-1.462-.025.023-.024.025 1.414 1.414zm28.416 7.008l-1.414-1.414 1.414 1.414zm-24.864-.656c-.942 0-1.626-.282-2.188-.806l-2.729 2.924c1.359 1.268 3.042 1.882 4.917 1.882v-4zm-2.138-.758c-.478-.478-.758-1.1-.758-2.042h-4c0 1.874.615 3.556 1.93 4.87l2.828-2.828zm-.758-2.042c0-1.034.298-1.678.758-2.138l-2.828-2.828c-1.332 1.332-1.93 3.056-1.93 4.966h4zm.708-2.09c.562-.524 1.246-.806 2.188-.806v-4c-1.875 0-3.558.614-4.917 1.882l2.73 2.924zm2.188-.806h21.408v-4H61.175v4zm21.408 0c.942 0 1.564.28 2.042.758l2.828-2.828c-1.314-1.315-2.996-1.93-4.87-1.93v4zm2.042.758c.46.46.758 1.104.758 2.138h4c0-1.91-.598-3.634-1.93-4.966l-2.828 2.828zm.758 2.138c0 .942-.28 1.564-.758 2.042l2.828 2.828c1.314-1.314 1.93-2.996 1.93-4.87h-4zm-.758 2.042c-.478.477-1.1.758-2.042.758v4c1.874 0 3.556-.615 4.87-1.93l-2.828-2.828zm-2.042.758H61.175v4h21.408v-4zm-21.408-41.8c-1.408 0-2.592-.448-3.552-1.344-.896-.896-1.344-2.048-1.344-3.456 0-1.472.448-2.656 1.344-3.552.96-.896 2.144-1.344 3.552-1.344h21.408c1.408 0 2.56.448 3.456 1.344.896.896 1.344 2.08 1.344 3.552 0 1.408-.448 2.56-1.344 3.456-.896.896-2.048 1.344-3.456 1.344H61.175z" fill="#004D90"/><path d="M57.623 10.848l-1.414 1.414.024.025.025.023 1.365-1.462zm0-7.008l-1.365-1.462-.025.024-.024.024 1.414 1.414zm28.416 7.008l-1.414-1.414 1.414 1.414zm-24.864-.656c-.942 0-1.626-.282-2.188-.806l-2.729 2.924c1.359 1.268 3.042 1.882 4.917 1.882v-4zm-2.138-.758c-.478-.478-.758-1.1-.758-2.042h-4c0 1.874.615 3.556 1.93 4.87l2.828-2.828zm-.758-2.042c0-1.034.298-1.678.758-2.138l-2.828-2.828c-1.332 1.332-1.93 3.056-1.93 4.966h4zm.708-2.09c.562-.524 1.246-.806 2.188-.806v-4c-1.875 0-3.558.614-4.917 1.882l2.73 2.924zm2.188-.806h21.408v-4H61.175v4zm21.408 0c.942 0 1.564.28 2.042.758l2.828-2.828c-1.314-1.315-2.996-1.93-4.87-1.93v4zm2.042.758c.46.46.758 1.104.758 2.138h4c0-1.91-.598-3.634-1.93-4.966l-2.828 2.828zm.758 2.138c0 .942-.28 1.564-.758 2.042l2.828 2.828c1.314-1.314 1.93-2.996 1.93-4.87h-4zm-.758 2.042c-.478.477-1.1.758-2.042.758v4c1.874 0 3.556-.615 4.87-1.93l-2.828-2.828zm-2.042.758H61.175v4h21.408v-4zm-21.408 24.4c-1.408 0-2.592-.448-3.552-1.344-.896-.896-1.344-2.048-1.344-3.456 0-1.472.448-2.656 1.344-3.552.96-.896 2.144-1.344 3.552-1.344h21.408c1.408 0 2.56.448 3.456 1.344.896.896 1.344 2.08 1.344 3.552 0 1.408-.448 2.56-1.344 3.456-.896.896-2.048 1.344-3.456 1.344H61.175z" fill="#004D90"/><path d="M57.623 33.248l-1.414 1.414.024.025.025.023 1.365-1.462zm0-7.008l-1.365-1.462-.025.023-.024.025 1.414 1.414zm28.416 7.008l-1.414-1.414 1.414 1.414zm-24.864-.656c-.942 0-1.626-.282-2.188-.806l-2.729 2.924c1.359 1.268 3.042 1.882 4.917 1.882v-4zm-2.138-.758c-.478-.478-.758-1.1-.758-2.042h-4c0 1.874.615 3.556 1.93 4.87l2.828-2.828zm-.758-2.042c0-1.034.298-1.678.758-2.138l-2.828-2.828c-1.332 1.332-1.93 3.056-1.93 4.966h4zm.708-2.09c.562-.524 1.246-.806 2.188-.806v-4c-1.875 0-3.558.614-4.917 1.882l2.73 2.924zm2.188-.806h21.408v-4H61.175v4zm21.408 0c.942 0 1.564.28 2.042.758l2.828-2.828c-1.314-1.315-2.996-1.93-4.87-1.93v4zm2.042.758c.46.46.758 1.104.758 2.138h4c0-1.91-.598-3.634-1.93-4.966l-2.828 2.828zm.758 2.138c0 .942-.28 1.564-.758 2.042l2.828 2.828c1.314-1.314 1.93-2.996 1.93-4.87h-4zm-.758 2.042c-.478.477-1.1.758-2.042.758v4c1.874 0 3.556-.615 4.87-1.93l-2.828-2.828zm-2.042.758H61.175v4h21.408v-4z" fill="#004D90"/></svg>