<svg version="1.0" xmlns="http://www.w3.org/2000/svg" width="933.333" height="933.333" viewBox="0 0 700 700"><path d="M315.4 71.4c-5.8 1.8-12.5 6.7-15.8 11.4-5 7.3-5.6 11.2-5.6 38.6v25.1L275.5 165c-23.4 23.3-32.1 35.7-38.4 54.8-5.9 17.4-5.5 4.5-5.8 189.6-.4 186-.7 174.7 5.4 187.4 7.3 14.9 26 26.3 43.3 26.2 13.3-.1 22.4-4.4 34.4-16.1 11.5-11.4 13-11.9 33.6-11.9 20.3 0 22.1.6 34 11.5 12.6 11.7 23.5 16.5 37 16.5 23 0 44.2-17.2 48.9-39.8.8-3.7 1.1-53.8 1.1-170.6 0-147.6-.2-166.3-1.6-174.6-2.9-16.8-9-32-18.4-46.1-2.4-3.5-13-15.2-23.6-25.9l-19.3-19.5-.3-27c-.3-30.7-.7-32.4-8.8-40.5-8.3-8.3-9.2-8.5-45.5-8.7-24.1-.2-33 .1-36.1 1.1zm69.6 81.7c0 1.4 7.2 9.5 21.8 24.3 22 22.3 27.1 28.6 32.2 39.9 6.5 14.4 9 28.2 9 49.9V280h-35.2l-3.4 3.4c-4.7 4.7-4.7 9.5 0 14.2l3.4 3.4H448v42h-35.2l-3.4 3.4c-4.7 4.7-4.7 9.5 0 14.2l3.4 3.4H448v42h-35.2l-3.4 3.4c-4.7 4.7-4.7 9.5 0 14.2l3.4 3.4H448v42h-35.2l-3.4 3.4c-2.6 2.6-3.4 4.2-3.4 7.1 0 2.9.8 4.5 3.4 7.1l3.4 3.4h35.3l-.3 44.7c-.3 43.1-.4 45-2.4 49.4-5.1 10.9-14.9 17.3-26.3 17.3-9.1 0-14.5-2.7-24.4-12-5.8-5.4-10.4-8.8-15.7-11.3l-7.5-3.6-20-.3c-13-.3-21.9 0-25.5.8-8.9 1.9-16.6 6.7-25.5 15.6-6.9 7.1-8.8 8.4-13.8 9.9-12.6 3.7-26.3-2.9-32.1-15.4-2-4.4-2.1-6.2-2.4-49.9l-.3-45.2h18.6c23.4 0 26.5-1.2 26.5-10.5s-3.1-10.5-26.5-10.5H252v-42h18.5c23.4 0 26.5-1.2 26.5-10.5s-3.1-10.5-26.5-10.5H252v-42h18.5c23.4 0 26.5-1.2 26.5-10.5s-3.1-10.5-26.5-10.5H252v-42h18.5c23.4 0 26.5-1.2 26.5-10.5s-3-10.5-26.6-10.5h-18.7l.6-18.3c.6-19.8 1.8-27 6.7-39.4 5.4-14.1 11.3-21.9 34.6-45.4 14.4-14.6 21.4-22.3 21.4-23.8V151h35c35 0 35 0 35 2.1z"/></svg>