<svg xmlns="http://www.w3.org/2000/svg" width="24" height="24"><path d="M10 .98c-4.336 0-8 3.455-8 7.545v3.498c0 3.386 1.023 5.591 3.123 6.715v2.301a1.935 1.935 0 003.287 1.39l2.961-2.859h3.068c4.17 0 7.561-3.386 7.561-7.547V8.525C22 4.365 18.607.98 14.44.98H10zm0 2h4.441c3.066 0 5.561 2.487 5.561 5.545v3.498c0 3.06-2.496 5.547-5.56 5.547h-3.473a1 1 0 00-.696.282l-3.15 3.043v-2.793a1 1 0 00-.63-.928C4.79 16.496 4 14.859 4 12.024v-3.5C4 5.571 6.804 2.98 10 2.98zm3 1a.5.5 0 000 1c2.947 0 5 2.635 5 5a.5.5 0 001 0c0-2.838-2.464-6-6-6zM8.002 4.99a.916.916 0 00-.697.18l-.588.453a1.811 1.811 0 00-.524 2.254c.738 1.467 1.975 3.727 3.018 4.69 1.282 1.183 3.296 2.587 4.99 3.277.741.302 1.59.09 2.11-.518.185-.216.357-.436.507-.635a.909.909 0 00-.197-1.285l-1.871-1.345a.922.922 0 00-1.266.181l-.314.348a.888.888 0 01-.826.289c-.476-.096-1.23-.407-2.102-1.34-.719-.768-1.122-1.585-1.27-2.154a.901.901 0 01.305-.92l.315-.262a.907.907 0 00.164-1.224l-1.14-1.612a.915.915 0 00-.614-.377zM13 5.98a.5.5 0 000 1c1.514 0 3 1.486 3 3a.5.5 0 001 0c0-2.056-1.944-4-4-4zm0 2a.5.5 0 000 1c.645 0 1 .355 1 1a.5.5 0 001 0c0-1.196-.804-2-2-2z"/></svg>